<?xml version="1.0" encoding="utf-8"?>
<!-- Generator: Adobe Illustrator 22.0.0, SVG Export Plug-In . SVG Version: 6.00 Build 0)  -->
<svg version="1.1" id="Layer_1" xmlns="http://www.w3.org/2000/svg" xmlns:xlink="http://www.w3.org/1999/xlink" x="0px" y="0px"
	 viewBox="0 0 32 32" style="enable-background:new 0 0 32 32;" xml:space="preserve">
<style type="text/css">
	.st0{fill:#09C19A;}
	.st1{fill:#FFFFFF;}
</style>
<path class="st0" d="M27,32H5c-2.8,0-5-2.2-5-5V5c0-2.8,2.2-5,5-5h22c2.8,0,5,2.2,5,5v22C32,29.8,29.8,32,27,32z"/>
<path class="st1" d="M20.7,11.5c0-0.2-0.1-0.5-0.2-0.6L16.6,7c-0.3-0.3-0.8-0.3-1.2,0c0,0-0.4,0.4-3.9,3.9c-0.2,0.1-0.2,0.3-0.2,0.6
	l0,13c0,0.3,0.2,0.6,0.5,0.7c0.1,0,0.2,0.1,0.3,0.1c0.2,0,0.4-0.1,0.6-0.2l3.4-3.3l3.3,3.3c0.2,0.3,0.6,0.3,0.9,0.2
	c0.3-0.1,0.5-0.5,0.5-0.9L20.7,11.5z M19.1,22.5L16.6,20c-0.2-0.2-0.4-0.2-0.6-0.2c0,0,0,0,0,0c-0.2,0-0.4,0.1-0.6,0.2l-2.6,2.5
	V11.8L16,8.7l3.1,3.1L19.1,22.5z"/>
</svg>
