<?xml version="1.0" encoding="utf-8"?>
<!-- Generator: Adobe Illustrator 22.0.0, SVG Export Plug-In . SVG Version: 6.00 Build 0)  -->
<svg version="1.1" id="Layer_1" xmlns="http://www.w3.org/2000/svg" xmlns:xlink="http://www.w3.org/1999/xlink" x="0px" y="0px"
	 viewBox="0 0 32 32" style="enable-background:new 0 0 32 32;" xml:space="preserve">
<style type="text/css">
	.st0{fill:#F46F6B;}
	.st1{fill:#FFFFFF;}
</style>
<path class="st0" d="M27,32H5c-2.8,0-5-2.2-5-5V5c0-2.8,2.2-5,5-5h22c2.8,0,5,2.2,5,5v22C32,29.8,29.8,32,27,32z"/>
<g>
	<path class="st1" d="M13.2,8.7C12.1,10,12.4,12,12.4,12s1.2,1.4,3.5,1.4c2.3,0,3.5-1.4,3.5-1.4s0.3-2-0.8-3.2c0.7-0.4,1.1-1,1-1.4
		c-0.2-0.4-1.1-0.5-1.9-0.1c-0.3,0.1-0.6,0.3-0.8,0.5c-0.3,0-0.6-0.1-0.9-0.1c-0.3,0-0.6,0-0.8,0.1c-0.2-0.2-0.5-0.4-0.8-0.5
		c-0.9-0.4-1.7-0.3-1.9,0.1C12.2,7.8,12.6,8.3,13.2,8.7z"/>
	<path class="st1" d="M22,17.8c-0.2,0-0.4-0.1-0.5-0.1c0,0,0-0.1,0-0.1c0-0.7-0.1-1.4-0.3-2.1c0.4,0,0.8-0.1,1.3-0.3
		c0.9-0.4,1.4-1.1,1.2-1.5c-0.2-0.4-1.1-0.5-1.9-0.1c-0.4,0.2-0.7,0.4-1,0.7c-0.2-0.4-0.4-0.8-0.6-1.1c-0.7,0.6-1.9,1.4-3.7,1.6v7.1
		c0,0,0,0.7-0.7,0.7c-0.7,0-0.7-0.7-0.7-0.7v-7.1c-1.8-0.2-3-1-3.7-1.6c-0.2,0.3-0.4,0.7-0.6,1.1c-0.2-0.2-0.5-0.5-0.9-0.6
		c-0.9-0.4-1.7-0.3-1.9,0.1c-0.2,0.4,0.4,1.1,1.2,1.5c0.4,0.2,0.9,0.3,1.2,0.3c-0.2,0.7-0.3,1.4-0.3,2.1c0,0,0,0.1,0,0.1
		c-0.1,0-0.3,0-0.5,0.1c-1.1,0.2-2,0.8-2,1.3c0.1,0.5,1,0.7,2.2,0.5c0.1,0,0.3-0.1,0.4-0.1c0.2,0.9,0.5,1.7,1,2.4
		c-0.3,0.1-0.5,0.3-0.8,0.6c-0.7,0.7-1,1.6-0.6,1.9c0.3,0.3,1.2,0.1,1.9-0.6c0.2-0.2,0.4-0.4,0.5-0.6c1,0.9,2.2,1.5,3.5,1.5
		c1.3,0,2.5-0.6,3.5-1.5c0.1,0.2,0.3,0.5,0.5,0.7c0.7,0.7,1.6,1,1.9,0.6s0.1-1.2-0.6-1.9c-0.3-0.3-0.6-0.5-0.8-0.6
		c0.4-0.7,0.8-1.5,1-2.4c0.2,0,0.3,0.1,0.5,0.1c1.1,0.2,2.1,0,2.2-0.5C24.1,18.6,23.2,18,22,17.8z"/>
</g>
</svg>
